G04 #@! TF.FileFunction,Soldermask,Bot*
%FSLAX46Y46*%
G04 Gerber Fmt 4.6, Leading zero omitted, Abs format (unit mm)*
G04 Created by KiCad (PCBNEW 4.0.4-stable) date *
%MOMM*%
%LPD*%
G01*
G04 APERTURE LIST*
%ADD10C,0.100000*%
%ADD11C,0.150000*%
%ADD12C,1.396998*%
%ADD13C,1.799998*%
%ADD14C,1.797000*%
%ADD15R,2.599640X1.924000*%
%ADD16O,2.599640X1.924000*%
%ADD17R,1.924000X2.599640*%
%ADD18O,1.924000X2.599640*%
%ADD19R,1.797000X1.797000*%
G04 APERTURE END LIST*
D10*
D11*
X100000000Y-100000000D02*
X100000000Y-147500000D01*
X100000000Y-147500000D02*
X136000000Y-147500000D01*
X136000000Y-100000000D02*
X136000000Y-147500000D01*
X100000000Y-100000000D02*
X136000000Y-100000000D01*
D12*
X102870000Y-116840000D03*
X105410000Y-116840000D03*
X107950000Y-116840000D03*
X107950000Y-114300000D03*
X105410000Y-114300000D03*
X102870000Y-114300000D03*
X102870000Y-111760000D03*
X105410000Y-111760000D03*
X107950000Y-111760000D03*
X107950000Y-109220000D03*
X105410000Y-109220000D03*
X102870000Y-109220000D03*
X102870000Y-106680000D03*
X105410000Y-106680000D03*
X107950000Y-106680000D03*
X107950000Y-104140000D03*
X105410000Y-104140000D03*
X102870000Y-104140000D03*
X105410000Y-101600000D03*
D13*
X121539000Y-138049000D03*
X114427000Y-138049000D03*
X133350000Y-144780000D03*
X133350000Y-142240000D03*
X102870000Y-144780000D03*
X102870000Y-142240000D03*
D14*
X105410000Y-129540000D03*
X105410000Y-119380000D03*
D15*
X110490000Y-106680000D03*
D16*
X110490000Y-109220000D03*
X110490000Y-111760000D03*
X110490000Y-114300000D03*
X110490000Y-116840000D03*
X110490000Y-119380000D03*
X110490000Y-121920000D03*
X110490000Y-124460000D03*
D17*
X115570000Y-124460000D03*
D18*
X118110000Y-124460000D03*
X120650000Y-124460000D03*
X123190000Y-124460000D03*
X125730000Y-124460000D03*
X128270000Y-124460000D03*
D15*
X133350000Y-124460000D03*
D16*
X133350000Y-121920000D03*
X133350000Y-119380000D03*
X133350000Y-116840000D03*
X133350000Y-114300000D03*
X133350000Y-111760000D03*
X133350000Y-109220000D03*
X133350000Y-106680000D03*
D14*
X102870000Y-119380000D03*
X102870000Y-129540000D03*
D19*
X130810000Y-129540000D03*
D14*
X133350000Y-129540000D03*
X128270000Y-129540000D03*
D12*
X102870000Y-101600000D03*
X107950000Y-101600000D03*
M02*
