G04 #@! TF.FileFunction,Legend,Top*
%FSLAX46Y46*%
G04 Gerber Fmt 4.6, Leading zero omitted, Abs format (unit mm)*
G04 Created by KiCad (PCBNEW 4.0.4-stable) date *
%MOMM*%
%LPD*%
G01*
G04 APERTURE LIST*
%ADD10C,0.100000*%
%ADD11C,0.150000*%
%ADD12C,0.200000*%
%ADD13C,0.304800*%
%ADD14C,0.203200*%
G04 APERTURE END LIST*
D10*
D11*
X130048096Y-144280000D02*
X129952858Y-144232381D01*
X129810001Y-144232381D01*
X129667143Y-144280000D01*
X129571905Y-144375238D01*
X129524286Y-144470476D01*
X129476667Y-144660952D01*
X129476667Y-144803810D01*
X129524286Y-144994286D01*
X129571905Y-145089524D01*
X129667143Y-145184762D01*
X129810001Y-145232381D01*
X129905239Y-145232381D01*
X130048096Y-145184762D01*
X130095715Y-145137143D01*
X130095715Y-144803810D01*
X129905239Y-144803810D01*
X130524286Y-145232381D02*
X130524286Y-144232381D01*
X131095715Y-145232381D01*
X131095715Y-144232381D01*
X131571905Y-145232381D02*
X131571905Y-144232381D01*
X131810000Y-144232381D01*
X131952858Y-144280000D01*
X132048096Y-144375238D01*
X132095715Y-144470476D01*
X132143334Y-144660952D01*
X132143334Y-144803810D01*
X132095715Y-144994286D01*
X132048096Y-145089524D01*
X131952858Y-145184762D01*
X131810000Y-145232381D01*
X131571905Y-145232381D01*
X129476667Y-141692381D02*
X129810000Y-142692381D01*
X130143334Y-141692381D01*
X131048096Y-142597143D02*
X131000477Y-142644762D01*
X130857620Y-142692381D01*
X130762382Y-142692381D01*
X130619524Y-142644762D01*
X130524286Y-142549524D01*
X130476667Y-142454286D01*
X130429048Y-142263810D01*
X130429048Y-142120952D01*
X130476667Y-141930476D01*
X130524286Y-141835238D01*
X130619524Y-141740000D01*
X130762382Y-141692381D01*
X130857620Y-141692381D01*
X131000477Y-141740000D01*
X131048096Y-141787619D01*
X132048096Y-142597143D02*
X132000477Y-142644762D01*
X131857620Y-142692381D01*
X131762382Y-142692381D01*
X131619524Y-142644762D01*
X131524286Y-142549524D01*
X131476667Y-142454286D01*
X131429048Y-142263810D01*
X131429048Y-142120952D01*
X131476667Y-141930476D01*
X131524286Y-141835238D01*
X131619524Y-141740000D01*
X131762382Y-141692381D01*
X131857620Y-141692381D01*
X132000477Y-141740000D01*
X132048096Y-141787619D01*
X104648096Y-144280000D02*
X104552858Y-144232381D01*
X104410001Y-144232381D01*
X104267143Y-144280000D01*
X104171905Y-144375238D01*
X104124286Y-144470476D01*
X104076667Y-144660952D01*
X104076667Y-144803810D01*
X104124286Y-144994286D01*
X104171905Y-145089524D01*
X104267143Y-145184762D01*
X104410001Y-145232381D01*
X104505239Y-145232381D01*
X104648096Y-145184762D01*
X104695715Y-145137143D01*
X104695715Y-144803810D01*
X104505239Y-144803810D01*
X105124286Y-145232381D02*
X105124286Y-144232381D01*
X105695715Y-145232381D01*
X105695715Y-144232381D01*
X106171905Y-145232381D02*
X106171905Y-144232381D01*
X106410000Y-144232381D01*
X106552858Y-144280000D01*
X106648096Y-144375238D01*
X106695715Y-144470476D01*
X106743334Y-144660952D01*
X106743334Y-144803810D01*
X106695715Y-144994286D01*
X106648096Y-145089524D01*
X106552858Y-145184762D01*
X106410000Y-145232381D01*
X106171905Y-145232381D01*
X104076667Y-141692381D02*
X104410000Y-142692381D01*
X104743334Y-141692381D01*
X105648096Y-142597143D02*
X105600477Y-142644762D01*
X105457620Y-142692381D01*
X105362382Y-142692381D01*
X105219524Y-142644762D01*
X105124286Y-142549524D01*
X105076667Y-142454286D01*
X105029048Y-142263810D01*
X105029048Y-142120952D01*
X105076667Y-141930476D01*
X105124286Y-141835238D01*
X105219524Y-141740000D01*
X105362382Y-141692381D01*
X105457620Y-141692381D01*
X105600477Y-141740000D01*
X105648096Y-141787619D01*
X106648096Y-142597143D02*
X106600477Y-142644762D01*
X106457620Y-142692381D01*
X106362382Y-142692381D01*
X106219524Y-142644762D01*
X106124286Y-142549524D01*
X106076667Y-142454286D01*
X106029048Y-142263810D01*
X106029048Y-142120952D01*
X106076667Y-141930476D01*
X106124286Y-141835238D01*
X106219524Y-141740000D01*
X106362382Y-141692381D01*
X106457620Y-141692381D01*
X106600477Y-141740000D01*
X106648096Y-141787619D01*
X105862381Y-125309238D02*
X105862381Y-125880667D01*
X105862381Y-125594953D02*
X104862381Y-125594953D01*
X105005238Y-125690191D01*
X105100476Y-125785429D01*
X105148095Y-125880667D01*
X104862381Y-124690191D02*
X104862381Y-124594952D01*
X104910000Y-124499714D01*
X104957619Y-124452095D01*
X105052857Y-124404476D01*
X105243333Y-124356857D01*
X105481429Y-124356857D01*
X105671905Y-124404476D01*
X105767143Y-124452095D01*
X105814762Y-124499714D01*
X105862381Y-124594952D01*
X105862381Y-124690191D01*
X105814762Y-124785429D01*
X105767143Y-124833048D01*
X105671905Y-124880667D01*
X105481429Y-124928286D01*
X105243333Y-124928286D01*
X105052857Y-124880667D01*
X104957619Y-124833048D01*
X104910000Y-124785429D01*
X104862381Y-124690191D01*
X105862381Y-123928286D02*
X104862381Y-123928286D01*
X105481429Y-123833048D02*
X105862381Y-123547333D01*
X105195714Y-123547333D02*
X105576667Y-123928286D01*
X103322381Y-125309238D02*
X103322381Y-125880667D01*
X103322381Y-125594953D02*
X102322381Y-125594953D01*
X102465238Y-125690191D01*
X102560476Y-125785429D01*
X102608095Y-125880667D01*
X102322381Y-124690191D02*
X102322381Y-124594952D01*
X102370000Y-124499714D01*
X102417619Y-124452095D01*
X102512857Y-124404476D01*
X102703333Y-124356857D01*
X102941429Y-124356857D01*
X103131905Y-124404476D01*
X103227143Y-124452095D01*
X103274762Y-124499714D01*
X103322381Y-124594952D01*
X103322381Y-124690191D01*
X103274762Y-124785429D01*
X103227143Y-124833048D01*
X103131905Y-124880667D01*
X102941429Y-124928286D01*
X102703333Y-124928286D01*
X102512857Y-124880667D01*
X102417619Y-124833048D01*
X102370000Y-124785429D01*
X102322381Y-124690191D01*
X103322381Y-123928286D02*
X102322381Y-123928286D01*
X102941429Y-123833048D02*
X103322381Y-123547333D01*
X102655714Y-123547333D02*
X103036667Y-123928286D01*
X115760762Y-146407143D02*
X115713143Y-146454762D01*
X115570286Y-146502381D01*
X115475048Y-146502381D01*
X115332190Y-146454762D01*
X115236952Y-146359524D01*
X115189333Y-146264286D01*
X115141714Y-146073810D01*
X115141714Y-145930952D01*
X115189333Y-145740476D01*
X115236952Y-145645238D01*
X115332190Y-145550000D01*
X115475048Y-145502381D01*
X115570286Y-145502381D01*
X115713143Y-145550000D01*
X115760762Y-145597619D01*
X116760762Y-146502381D02*
X116427428Y-146026190D01*
X116189333Y-146502381D02*
X116189333Y-145502381D01*
X116570286Y-145502381D01*
X116665524Y-145550000D01*
X116713143Y-145597619D01*
X116760762Y-145692857D01*
X116760762Y-145835714D01*
X116713143Y-145930952D01*
X116665524Y-145978571D01*
X116570286Y-146026190D01*
X116189333Y-146026190D01*
X117141714Y-145597619D02*
X117189333Y-145550000D01*
X117284571Y-145502381D01*
X117522667Y-145502381D01*
X117617905Y-145550000D01*
X117665524Y-145597619D01*
X117713143Y-145692857D01*
X117713143Y-145788095D01*
X117665524Y-145930952D01*
X117094095Y-146502381D01*
X117713143Y-146502381D01*
X118332190Y-145502381D02*
X118427429Y-145502381D01*
X118522667Y-145550000D01*
X118570286Y-145597619D01*
X118617905Y-145692857D01*
X118665524Y-145883333D01*
X118665524Y-146121429D01*
X118617905Y-146311905D01*
X118570286Y-146407143D01*
X118522667Y-146454762D01*
X118427429Y-146502381D01*
X118332190Y-146502381D01*
X118236952Y-146454762D01*
X118189333Y-146407143D01*
X118141714Y-146311905D01*
X118094095Y-146121429D01*
X118094095Y-145883333D01*
X118141714Y-145692857D01*
X118189333Y-145597619D01*
X118236952Y-145550000D01*
X118332190Y-145502381D01*
X118998857Y-145502381D02*
X119617905Y-145502381D01*
X119284571Y-145883333D01*
X119427429Y-145883333D01*
X119522667Y-145930952D01*
X119570286Y-145978571D01*
X119617905Y-146073810D01*
X119617905Y-146311905D01*
X119570286Y-146407143D01*
X119522667Y-146454762D01*
X119427429Y-146502381D01*
X119141714Y-146502381D01*
X119046476Y-146454762D01*
X118998857Y-146407143D01*
X119998857Y-145597619D02*
X120046476Y-145550000D01*
X120141714Y-145502381D01*
X120379810Y-145502381D01*
X120475048Y-145550000D01*
X120522667Y-145597619D01*
X120570286Y-145692857D01*
X120570286Y-145788095D01*
X120522667Y-145930952D01*
X119951238Y-146502381D01*
X120570286Y-146502381D01*
X128048096Y-132024381D02*
X127714762Y-131548190D01*
X127476667Y-132024381D02*
X127476667Y-131024381D01*
X127857620Y-131024381D01*
X127952858Y-131072000D01*
X128000477Y-131119619D01*
X128048096Y-131214857D01*
X128048096Y-131357714D01*
X128000477Y-131452952D01*
X127952858Y-131500571D01*
X127857620Y-131548190D01*
X127476667Y-131548190D01*
X128476667Y-131024381D02*
X128476667Y-131833905D01*
X128524286Y-131929143D01*
X128571905Y-131976762D01*
X128667143Y-132024381D01*
X128857620Y-132024381D01*
X128952858Y-131976762D01*
X129000477Y-131929143D01*
X129048096Y-131833905D01*
X129048096Y-131024381D01*
X129524286Y-132024381D02*
X129524286Y-131024381D01*
X130095715Y-132024381D01*
X130095715Y-131024381D01*
X131286191Y-130976762D02*
X130429048Y-132262476D01*
X131619524Y-132024381D02*
X131619524Y-131024381D01*
X132000477Y-131024381D01*
X132095715Y-131072000D01*
X132143334Y-131119619D01*
X132190953Y-131214857D01*
X132190953Y-131357714D01*
X132143334Y-131452952D01*
X132095715Y-131500571D01*
X132000477Y-131548190D01*
X131619524Y-131548190D01*
X133190953Y-132024381D02*
X132857619Y-131548190D01*
X132619524Y-132024381D02*
X132619524Y-131024381D01*
X133000477Y-131024381D01*
X133095715Y-131072000D01*
X133143334Y-131119619D01*
X133190953Y-131214857D01*
X133190953Y-131357714D01*
X133143334Y-131452952D01*
X133095715Y-131500571D01*
X133000477Y-131548190D01*
X132619524Y-131548190D01*
X134143334Y-131072000D02*
X134048096Y-131024381D01*
X133905239Y-131024381D01*
X133762381Y-131072000D01*
X133667143Y-131167238D01*
X133619524Y-131262476D01*
X133571905Y-131452952D01*
X133571905Y-131595810D01*
X133619524Y-131786286D01*
X133667143Y-131881524D01*
X133762381Y-131976762D01*
X133905239Y-132024381D01*
X134000477Y-132024381D01*
X134143334Y-131976762D01*
X134190953Y-131929143D01*
X134190953Y-131595810D01*
X134000477Y-131595810D01*
X112291905Y-124912381D02*
X112291905Y-123912381D01*
X112625239Y-124626667D01*
X112958572Y-123912381D01*
X112958572Y-124912381D01*
X113910953Y-124912381D02*
X113434762Y-124912381D01*
X113434762Y-123912381D01*
X129990953Y-122243810D02*
X130105239Y-122281905D01*
X130295715Y-122281905D01*
X130371905Y-122243810D01*
X130410001Y-122205714D01*
X130448096Y-122129524D01*
X130448096Y-122053333D01*
X130410001Y-121977143D01*
X130371905Y-121939048D01*
X130295715Y-121900952D01*
X130143334Y-121862857D01*
X130067143Y-121824762D01*
X130029048Y-121786667D01*
X129990953Y-121710476D01*
X129990953Y-121634286D01*
X130029048Y-121558095D01*
X130067143Y-121520000D01*
X130143334Y-121481905D01*
X130333810Y-121481905D01*
X130448096Y-121520000D01*
X130790953Y-122281905D02*
X130790953Y-121481905D01*
X131095715Y-121481905D01*
X131171906Y-121520000D01*
X131210001Y-121558095D01*
X131248096Y-121634286D01*
X131248096Y-121748571D01*
X131210001Y-121824762D01*
X131171906Y-121862857D01*
X131095715Y-121900952D01*
X130790953Y-121900952D01*
X131590953Y-122281905D02*
X131590953Y-121481905D01*
X130071905Y-119832381D02*
X130071905Y-118832381D01*
X130452858Y-118832381D01*
X130548096Y-118880000D01*
X130595715Y-118927619D01*
X130643334Y-119022857D01*
X130643334Y-119165714D01*
X130595715Y-119260952D01*
X130548096Y-119308571D01*
X130452858Y-119356190D01*
X130071905Y-119356190D01*
X130976667Y-118832381D02*
X131643334Y-118832381D01*
X131214762Y-119832381D01*
X130024286Y-117292381D02*
X130024286Y-116292381D01*
X130595715Y-117292381D01*
X130595715Y-116292381D01*
X131643334Y-117197143D02*
X131595715Y-117244762D01*
X131452858Y-117292381D01*
X131357620Y-117292381D01*
X131214762Y-117244762D01*
X131119524Y-117149524D01*
X131071905Y-117054286D01*
X131024286Y-116863810D01*
X131024286Y-116720952D01*
X131071905Y-116530476D01*
X131119524Y-116435238D01*
X131214762Y-116340000D01*
X131357620Y-116292381D01*
X131452858Y-116292381D01*
X131595715Y-116340000D01*
X131643334Y-116387619D01*
X130119524Y-114704762D02*
X130262381Y-114752381D01*
X130500477Y-114752381D01*
X130595715Y-114704762D01*
X130643334Y-114657143D01*
X130690953Y-114561905D01*
X130690953Y-114466667D01*
X130643334Y-114371429D01*
X130595715Y-114323810D01*
X130500477Y-114276190D01*
X130310000Y-114228571D01*
X130214762Y-114180952D01*
X130167143Y-114133333D01*
X130119524Y-114038095D01*
X130119524Y-113942857D01*
X130167143Y-113847619D01*
X130214762Y-113800000D01*
X130310000Y-113752381D01*
X130548096Y-113752381D01*
X130690953Y-113800000D01*
X131595715Y-114752381D02*
X131119524Y-114752381D01*
X131119524Y-113752381D01*
X130024286Y-112164762D02*
X130167143Y-112212381D01*
X130405239Y-112212381D01*
X130500477Y-112164762D01*
X130548096Y-112117143D01*
X130595715Y-112021905D01*
X130595715Y-111926667D01*
X130548096Y-111831429D01*
X130500477Y-111783810D01*
X130405239Y-111736190D01*
X130214762Y-111688571D01*
X130119524Y-111640952D01*
X130071905Y-111593333D01*
X130024286Y-111498095D01*
X130024286Y-111402857D01*
X130071905Y-111307619D01*
X130119524Y-111260000D01*
X130214762Y-111212381D01*
X130452858Y-111212381D01*
X130595715Y-111260000D01*
X131595715Y-112117143D02*
X131548096Y-112164762D01*
X131405239Y-112212381D01*
X131310001Y-112212381D01*
X131167143Y-112164762D01*
X131071905Y-112069524D01*
X131024286Y-111974286D01*
X130976667Y-111783810D01*
X130976667Y-111640952D01*
X131024286Y-111450476D01*
X131071905Y-111355238D01*
X131167143Y-111260000D01*
X131310001Y-111212381D01*
X131405239Y-111212381D01*
X131548096Y-111260000D01*
X131595715Y-111307619D01*
X130111619Y-108672381D02*
X130444952Y-109672381D01*
X130778286Y-108672381D01*
X131111619Y-109291429D02*
X131873524Y-109291429D01*
X131492572Y-109672381D02*
X131492572Y-108910476D01*
X130548096Y-106180000D02*
X130452858Y-106132381D01*
X130310001Y-106132381D01*
X130167143Y-106180000D01*
X130071905Y-106275238D01*
X130024286Y-106370476D01*
X129976667Y-106560952D01*
X129976667Y-106703810D01*
X130024286Y-106894286D01*
X130071905Y-106989524D01*
X130167143Y-107084762D01*
X130310001Y-107132381D01*
X130405239Y-107132381D01*
X130548096Y-107084762D01*
X130595715Y-107037143D01*
X130595715Y-106703810D01*
X130405239Y-106703810D01*
X131024286Y-107132381D02*
X131024286Y-106132381D01*
X131595715Y-107132381D01*
X131595715Y-106132381D01*
X127412857Y-127198381D02*
X127412857Y-126198381D01*
X127412857Y-126674571D02*
X127984286Y-126674571D01*
X127984286Y-127198381D02*
X127984286Y-126198381D01*
X128365238Y-126198381D02*
X128603333Y-127198381D01*
X128793810Y-126484095D01*
X128984286Y-127198381D01*
X129222381Y-126198381D01*
X124991905Y-127198381D02*
X124991905Y-126198381D01*
X125372858Y-126198381D01*
X125468096Y-126246000D01*
X125515715Y-126293619D01*
X125563334Y-126388857D01*
X125563334Y-126531714D01*
X125515715Y-126626952D01*
X125468096Y-126674571D01*
X125372858Y-126722190D01*
X124991905Y-126722190D01*
X126468096Y-126198381D02*
X125991905Y-126198381D01*
X125944286Y-126674571D01*
X125991905Y-126626952D01*
X126087143Y-126579333D01*
X126325239Y-126579333D01*
X126420477Y-126626952D01*
X126468096Y-126674571D01*
X126515715Y-126769810D01*
X126515715Y-127007905D01*
X126468096Y-127103143D01*
X126420477Y-127150762D01*
X126325239Y-127198381D01*
X126087143Y-127198381D01*
X125991905Y-127150762D01*
X125944286Y-127103143D01*
X122451905Y-127198381D02*
X122451905Y-126198381D01*
X122832858Y-126198381D01*
X122928096Y-126246000D01*
X122975715Y-126293619D01*
X123023334Y-126388857D01*
X123023334Y-126531714D01*
X122975715Y-126626952D01*
X122928096Y-126674571D01*
X122832858Y-126722190D01*
X122451905Y-126722190D01*
X123880477Y-126531714D02*
X123880477Y-127198381D01*
X123642381Y-126150762D02*
X123404286Y-126865048D01*
X124023334Y-126865048D01*
X119911905Y-127198381D02*
X119911905Y-126198381D01*
X120292858Y-126198381D01*
X120388096Y-126246000D01*
X120435715Y-126293619D01*
X120483334Y-126388857D01*
X120483334Y-126531714D01*
X120435715Y-126626952D01*
X120388096Y-126674571D01*
X120292858Y-126722190D01*
X119911905Y-126722190D01*
X120816667Y-126198381D02*
X121435715Y-126198381D01*
X121102381Y-126579333D01*
X121245239Y-126579333D01*
X121340477Y-126626952D01*
X121388096Y-126674571D01*
X121435715Y-126769810D01*
X121435715Y-127007905D01*
X121388096Y-127103143D01*
X121340477Y-127150762D01*
X121245239Y-127198381D01*
X120959524Y-127198381D01*
X120864286Y-127150762D01*
X120816667Y-127103143D01*
X117371905Y-127198381D02*
X117371905Y-126198381D01*
X117752858Y-126198381D01*
X117848096Y-126246000D01*
X117895715Y-126293619D01*
X117943334Y-126388857D01*
X117943334Y-126531714D01*
X117895715Y-126626952D01*
X117848096Y-126674571D01*
X117752858Y-126722190D01*
X117371905Y-126722190D01*
X118324286Y-126293619D02*
X118371905Y-126246000D01*
X118467143Y-126198381D01*
X118705239Y-126198381D01*
X118800477Y-126246000D01*
X118848096Y-126293619D01*
X118895715Y-126388857D01*
X118895715Y-126484095D01*
X118848096Y-126626952D01*
X118276667Y-127198381D01*
X118895715Y-127198381D01*
X114577905Y-127198381D02*
X114577905Y-126198381D01*
X114958858Y-126198381D01*
X115054096Y-126246000D01*
X115101715Y-126293619D01*
X115149334Y-126388857D01*
X115149334Y-126531714D01*
X115101715Y-126626952D01*
X115054096Y-126674571D01*
X114958858Y-126722190D01*
X114577905Y-126722190D01*
X116101715Y-127198381D02*
X115530286Y-127198381D01*
X115816000Y-127198381D02*
X115816000Y-126198381D01*
X115720762Y-126341238D01*
X115625524Y-126436476D01*
X115530286Y-126484095D01*
X112172857Y-122324762D02*
X112315714Y-122372381D01*
X112553810Y-122372381D01*
X112649048Y-122324762D01*
X112696667Y-122277143D01*
X112744286Y-122181905D01*
X112744286Y-122086667D01*
X112696667Y-121991429D01*
X112649048Y-121943810D01*
X112553810Y-121896190D01*
X112363333Y-121848571D01*
X112268095Y-121800952D01*
X112220476Y-121753333D01*
X112172857Y-121658095D01*
X112172857Y-121562857D01*
X112220476Y-121467619D01*
X112268095Y-121420000D01*
X112363333Y-121372381D01*
X112601429Y-121372381D01*
X112744286Y-121420000D01*
X113077619Y-121372381D02*
X113315714Y-122372381D01*
X113506191Y-121658095D01*
X113696667Y-122372381D01*
X113934762Y-121372381D01*
X112315714Y-114466667D02*
X112791905Y-114466667D01*
X112220476Y-114752381D02*
X112553809Y-113752381D01*
X112887143Y-114752381D01*
X113410952Y-113752381D02*
X113506191Y-113752381D01*
X113601429Y-113800000D01*
X113649048Y-113847619D01*
X113696667Y-113942857D01*
X113744286Y-114133333D01*
X113744286Y-114371429D01*
X113696667Y-114561905D01*
X113649048Y-114657143D01*
X113601429Y-114704762D01*
X113506191Y-114752381D01*
X113410952Y-114752381D01*
X113315714Y-114704762D01*
X113268095Y-114657143D01*
X113220476Y-114561905D01*
X113172857Y-114371429D01*
X113172857Y-114133333D01*
X113220476Y-113942857D01*
X113268095Y-113847619D01*
X113315714Y-113800000D01*
X113410952Y-113752381D01*
X112315714Y-111926667D02*
X112791905Y-111926667D01*
X112220476Y-112212381D02*
X112553809Y-111212381D01*
X112887143Y-112212381D01*
X113744286Y-112212381D02*
X113172857Y-112212381D01*
X113458571Y-112212381D02*
X113458571Y-111212381D01*
X113363333Y-111355238D01*
X113268095Y-111450476D01*
X113172857Y-111498095D01*
X112315714Y-109386667D02*
X112791905Y-109386667D01*
X112220476Y-109672381D02*
X112553809Y-108672381D01*
X112887143Y-109672381D01*
X113172857Y-108767619D02*
X113220476Y-108720000D01*
X113315714Y-108672381D01*
X113553810Y-108672381D01*
X113649048Y-108720000D01*
X113696667Y-108767619D01*
X113744286Y-108862857D01*
X113744286Y-108958095D01*
X113696667Y-109100952D01*
X113125238Y-109672381D01*
X113744286Y-109672381D01*
X112863334Y-119832381D02*
X112530000Y-119356190D01*
X112291905Y-119832381D02*
X112291905Y-118832381D01*
X112672858Y-118832381D01*
X112768096Y-118880000D01*
X112815715Y-118927619D01*
X112863334Y-119022857D01*
X112863334Y-119165714D01*
X112815715Y-119260952D01*
X112768096Y-119308571D01*
X112672858Y-119356190D01*
X112291905Y-119356190D01*
X113196667Y-118832381D02*
X113863334Y-119832381D01*
X113863334Y-118832381D02*
X113196667Y-119832381D01*
X112268095Y-116292381D02*
X112839524Y-116292381D01*
X112553809Y-117292381D02*
X112553809Y-116292381D01*
X113077619Y-116292381D02*
X113744286Y-117292381D01*
X113744286Y-116292381D02*
X113077619Y-117292381D01*
X112768096Y-106180000D02*
X112672858Y-106132381D01*
X112530001Y-106132381D01*
X112387143Y-106180000D01*
X112291905Y-106275238D01*
X112244286Y-106370476D01*
X112196667Y-106560952D01*
X112196667Y-106703810D01*
X112244286Y-106894286D01*
X112291905Y-106989524D01*
X112387143Y-107084762D01*
X112530001Y-107132381D01*
X112625239Y-107132381D01*
X112768096Y-107084762D01*
X112815715Y-107037143D01*
X112815715Y-106703810D01*
X112625239Y-106703810D01*
X113244286Y-107132381D02*
X113244286Y-106132381D01*
X113815715Y-107132381D01*
X113815715Y-106132381D01*
X100000000Y-100000000D02*
X100000000Y-147500000D01*
X100000000Y-147500000D02*
X136000000Y-147500000D01*
X136000000Y-100000000D02*
X136000000Y-147500000D01*
X100000000Y-100000000D02*
X136000000Y-100000000D01*
X128555000Y-133300000D02*
X121755000Y-127550000D01*
X114255000Y-127550000D02*
X107455000Y-133300000D01*
X112663000Y-146382190D02*
G75*
G02X123345000Y-146380000I5342000J-4875908D01*
G01*
X112670366Y-146372907D02*
G75*
G02X107455000Y-144350000I-2215366J2022907D01*
G01*
X123339634Y-146372907D02*
G75*
G03X128555000Y-144350000I2215366J2022907D01*
G01*
X121755000Y-127550000D02*
X114255000Y-127550000D01*
X107455000Y-133300000D02*
X107455000Y-144350000D01*
X128555000Y-144350000D02*
X128555000Y-133300000D01*
X104140000Y-127000000D02*
X104140000Y-121920000D01*
X104140000Y-121920000D02*
X106680000Y-121920000D01*
X106680000Y-121920000D02*
X106680000Y-127000000D01*
X106680000Y-127000000D02*
X104140000Y-127000000D01*
X105410000Y-127000000D02*
X105410000Y-128270000D01*
X105410000Y-121920000D02*
X105410000Y-120650000D01*
D12*
X114635000Y-105465000D02*
X129135000Y-105465000D01*
X125635000Y-120015000D02*
X126535000Y-120015000D01*
X117235000Y-120015000D02*
X118135000Y-120015000D01*
X116135000Y-118215000D02*
X116135000Y-118915000D01*
X127635000Y-118215000D02*
X127635000Y-118915000D01*
X127635000Y-108415000D02*
X127635000Y-100515000D01*
X127635000Y-100515000D02*
X116135000Y-100515000D01*
X116135000Y-100515000D02*
X116135000Y-108415000D01*
D13*
X111760000Y-107950000D02*
X109220000Y-107950000D01*
X111760000Y-105410000D02*
X111760000Y-125730000D01*
X111760000Y-125730000D02*
X109220000Y-125730000D01*
X109220000Y-125730000D02*
X109220000Y-105410000D01*
X109220000Y-105410000D02*
X111760000Y-105410000D01*
X116840000Y-123190000D02*
X116840000Y-125730000D01*
X114300000Y-125730000D02*
X114300000Y-123190000D01*
X114300000Y-123190000D02*
X129540000Y-123190000D01*
X129540000Y-123190000D02*
X129540000Y-125730000D01*
X129540000Y-125730000D02*
X114300000Y-125730000D01*
X132080000Y-123190000D02*
X134620000Y-123190000D01*
X132080000Y-125730000D02*
X132080000Y-105410000D01*
X132080000Y-105410000D02*
X134620000Y-105410000D01*
X134620000Y-105410000D02*
X134620000Y-125730000D01*
X134620000Y-125730000D02*
X132080000Y-125730000D01*
D11*
X104140000Y-121920000D02*
X104140000Y-127000000D01*
X104140000Y-127000000D02*
X101600000Y-127000000D01*
X101600000Y-127000000D02*
X101600000Y-121920000D01*
X101600000Y-121920000D02*
X104140000Y-121920000D01*
X102870000Y-121920000D02*
X102870000Y-120650000D01*
X102870000Y-127000000D02*
X102870000Y-128270000D01*
X134620000Y-128270000D02*
X134620000Y-130810000D01*
X134620000Y-130810000D02*
X127000000Y-130810000D01*
X127000000Y-130810000D02*
X127000000Y-128270000D01*
X127000000Y-128270000D02*
X134620000Y-128270000D01*
D10*
X103518500Y-116840000D02*
G75*
G03X103518500Y-116840000I-648500J0D01*
G01*
X106058500Y-116840000D02*
G75*
G03X106058500Y-116840000I-648500J0D01*
G01*
X108598500Y-116840000D02*
G75*
G03X108598500Y-116840000I-648500J0D01*
G01*
X108598500Y-114300000D02*
G75*
G03X108598500Y-114300000I-648500J0D01*
G01*
X106058500Y-114300000D02*
G75*
G03X106058500Y-114300000I-648500J0D01*
G01*
X103518500Y-114300000D02*
G75*
G03X103518500Y-114300000I-648500J0D01*
G01*
X103518500Y-111760000D02*
G75*
G03X103518500Y-111760000I-648500J0D01*
G01*
X106058500Y-111760000D02*
G75*
G03X106058500Y-111760000I-648500J0D01*
G01*
X108598500Y-111760000D02*
G75*
G03X108598500Y-111760000I-648500J0D01*
G01*
X108598500Y-109220000D02*
G75*
G03X108598500Y-109220000I-648500J0D01*
G01*
X106058500Y-109220000D02*
G75*
G03X106058500Y-109220000I-648500J0D01*
G01*
X103518500Y-109220000D02*
G75*
G03X103518500Y-109220000I-648500J0D01*
G01*
X103518500Y-106680000D02*
G75*
G03X103518500Y-106680000I-648500J0D01*
G01*
X106058500Y-106680000D02*
G75*
G03X106058500Y-106680000I-648500J0D01*
G01*
X108598500Y-106680000D02*
G75*
G03X108598500Y-106680000I-648500J0D01*
G01*
X108598500Y-104140000D02*
G75*
G03X108598500Y-104140000I-648500J0D01*
G01*
X106058500Y-104140000D02*
G75*
G03X106058500Y-104140000I-648500J0D01*
G01*
X103518500Y-104140000D02*
G75*
G03X103518500Y-104140000I-648500J0D01*
G01*
X106058500Y-101600000D02*
G75*
G03X106058500Y-101600000I-648500J0D01*
G01*
X122389000Y-138049000D02*
G75*
G03X122389000Y-138049000I-850000J0D01*
G01*
X115277000Y-138049000D02*
G75*
G03X115277000Y-138049000I-850000J0D01*
G01*
X134200000Y-144780000D02*
G75*
G03X134200000Y-144780000I-850000J0D01*
G01*
X134200000Y-142240000D02*
G75*
G03X134200000Y-142240000I-850000J0D01*
G01*
X103720000Y-144780000D02*
G75*
G03X103720000Y-144780000I-850000J0D01*
G01*
X103720000Y-142240000D02*
G75*
G03X103720000Y-142240000I-850000J0D01*
G01*
X106058500Y-129540000D02*
G75*
G03X106058500Y-129540000I-648500J0D01*
G01*
X106058500Y-119380000D02*
G75*
G03X106058500Y-119380000I-648500J0D01*
G01*
X110827820Y-108508000D02*
X110152180Y-108508000D01*
X110827820Y-109932000D02*
X110152180Y-109932000D01*
X110152180Y-108508000D02*
G75*
G03X110152180Y-109932000I0J-712000D01*
G01*
X110827820Y-109932000D02*
G75*
G03X110827820Y-108508000I0J712000D01*
G01*
X110827820Y-111048000D02*
X110152180Y-111048000D01*
X110827820Y-112472000D02*
X110152180Y-112472000D01*
X110152180Y-111048000D02*
G75*
G03X110152180Y-112472000I0J-712000D01*
G01*
X110827820Y-112472000D02*
G75*
G03X110827820Y-111048000I0J712000D01*
G01*
X110827820Y-113588000D02*
X110152180Y-113588000D01*
X110827820Y-115012000D02*
X110152180Y-115012000D01*
X110152180Y-113588000D02*
G75*
G03X110152180Y-115012000I0J-712000D01*
G01*
X110827820Y-115012000D02*
G75*
G03X110827820Y-113588000I0J712000D01*
G01*
X110827820Y-116128000D02*
X110152180Y-116128000D01*
X110827820Y-117552000D02*
X110152180Y-117552000D01*
X110152180Y-116128000D02*
G75*
G03X110152180Y-117552000I0J-712000D01*
G01*
X110827820Y-117552000D02*
G75*
G03X110827820Y-116128000I0J712000D01*
G01*
X110827820Y-118668000D02*
X110152180Y-118668000D01*
X110827820Y-120092000D02*
X110152180Y-120092000D01*
X110152180Y-118668000D02*
G75*
G03X110152180Y-120092000I0J-712000D01*
G01*
X110827820Y-120092000D02*
G75*
G03X110827820Y-118668000I0J712000D01*
G01*
X110827820Y-121208000D02*
X110152180Y-121208000D01*
X110827820Y-122632000D02*
X110152180Y-122632000D01*
X110152180Y-121208000D02*
G75*
G03X110152180Y-122632000I0J-712000D01*
G01*
X110827820Y-122632000D02*
G75*
G03X110827820Y-121208000I0J712000D01*
G01*
X110827820Y-123748000D02*
X110152180Y-123748000D01*
X110827820Y-125172000D02*
X110152180Y-125172000D01*
X110152180Y-123748000D02*
G75*
G03X110152180Y-125172000I0J-712000D01*
G01*
X110827820Y-125172000D02*
G75*
G03X110827820Y-123748000I0J712000D01*
G01*
X117398000Y-124122180D02*
X117398000Y-124797820D01*
X118822000Y-124122180D02*
X118822000Y-124797820D01*
X117398000Y-124797820D02*
G75*
G03X118822000Y-124797820I712000J0D01*
G01*
X118822000Y-124122180D02*
G75*
G03X117398000Y-124122180I-712000J0D01*
G01*
X119938000Y-124122180D02*
X119938000Y-124797820D01*
X121362000Y-124122180D02*
X121362000Y-124797820D01*
X119938000Y-124797820D02*
G75*
G03X121362000Y-124797820I712000J0D01*
G01*
X121362000Y-124122180D02*
G75*
G03X119938000Y-124122180I-712000J0D01*
G01*
X122478000Y-124122180D02*
X122478000Y-124797820D01*
X123902000Y-124122180D02*
X123902000Y-124797820D01*
X122478000Y-124797820D02*
G75*
G03X123902000Y-124797820I712000J0D01*
G01*
X123902000Y-124122180D02*
G75*
G03X122478000Y-124122180I-712000J0D01*
G01*
X125018000Y-124122180D02*
X125018000Y-124797820D01*
X126442000Y-124122180D02*
X126442000Y-124797820D01*
X125018000Y-124797820D02*
G75*
G03X126442000Y-124797820I712000J0D01*
G01*
X126442000Y-124122180D02*
G75*
G03X125018000Y-124122180I-712000J0D01*
G01*
X127558000Y-124122180D02*
X127558000Y-124797820D01*
X128982000Y-124122180D02*
X128982000Y-124797820D01*
X127558000Y-124797820D02*
G75*
G03X128982000Y-124797820I712000J0D01*
G01*
X128982000Y-124122180D02*
G75*
G03X127558000Y-124122180I-712000J0D01*
G01*
X133012180Y-122632000D02*
X133687820Y-122632000D01*
X133012180Y-121208000D02*
X133687820Y-121208000D01*
X133687820Y-122632000D02*
G75*
G03X133687820Y-121208000I0J712000D01*
G01*
X133012180Y-121208000D02*
G75*
G03X133012180Y-122632000I0J-712000D01*
G01*
X133012180Y-120092000D02*
X133687820Y-120092000D01*
X133012180Y-118668000D02*
X133687820Y-118668000D01*
X133687820Y-120092000D02*
G75*
G03X133687820Y-118668000I0J712000D01*
G01*
X133012180Y-118668000D02*
G75*
G03X133012180Y-120092000I0J-712000D01*
G01*
X133012180Y-117552000D02*
X133687820Y-117552000D01*
X133012180Y-116128000D02*
X133687820Y-116128000D01*
X133687820Y-117552000D02*
G75*
G03X133687820Y-116128000I0J712000D01*
G01*
X133012180Y-116128000D02*
G75*
G03X133012180Y-117552000I0J-712000D01*
G01*
X133012180Y-115012000D02*
X133687820Y-115012000D01*
X133012180Y-113588000D02*
X133687820Y-113588000D01*
X133687820Y-115012000D02*
G75*
G03X133687820Y-113588000I0J712000D01*
G01*
X133012180Y-113588000D02*
G75*
G03X133012180Y-115012000I0J-712000D01*
G01*
X133012180Y-112472000D02*
X133687820Y-112472000D01*
X133012180Y-111048000D02*
X133687820Y-111048000D01*
X133687820Y-112472000D02*
G75*
G03X133687820Y-111048000I0J712000D01*
G01*
X133012180Y-111048000D02*
G75*
G03X133012180Y-112472000I0J-712000D01*
G01*
X133012180Y-109932000D02*
X133687820Y-109932000D01*
X133012180Y-108508000D02*
X133687820Y-108508000D01*
X133687820Y-109932000D02*
G75*
G03X133687820Y-108508000I0J712000D01*
G01*
X133012180Y-108508000D02*
G75*
G03X133012180Y-109932000I0J-712000D01*
G01*
X133012180Y-107392000D02*
X133687820Y-107392000D01*
X133012180Y-105968000D02*
X133687820Y-105968000D01*
X133687820Y-107392000D02*
G75*
G03X133687820Y-105968000I0J712000D01*
G01*
X133012180Y-105968000D02*
G75*
G03X133012180Y-107392000I0J-712000D01*
G01*
X103518500Y-119380000D02*
G75*
G03X103518500Y-119380000I-648500J0D01*
G01*
X103518500Y-129540000D02*
G75*
G03X103518500Y-129540000I-648500J0D01*
G01*
X133998500Y-129540000D02*
G75*
G03X133998500Y-129540000I-648500J0D01*
G01*
X128918500Y-129540000D02*
G75*
G03X128918500Y-129540000I-648500J0D01*
G01*
X103518500Y-101600000D02*
G75*
G03X103518500Y-101600000I-648500J0D01*
G01*
X108598500Y-101600000D02*
G75*
G03X108598500Y-101600000I-648500J0D01*
G01*
D11*
X117219286Y-142803571D02*
X117362143Y-142851190D01*
X117409762Y-142898810D01*
X117457381Y-142994048D01*
X117457381Y-143136905D01*
X117409762Y-143232143D01*
X117362143Y-143279762D01*
X117266905Y-143327381D01*
X116885952Y-143327381D01*
X116885952Y-142327381D01*
X117219286Y-142327381D01*
X117314524Y-142375000D01*
X117362143Y-142422619D01*
X117409762Y-142517857D01*
X117409762Y-142613095D01*
X117362143Y-142708333D01*
X117314524Y-142755952D01*
X117219286Y-142803571D01*
X116885952Y-142803571D01*
X117743095Y-142327381D02*
X118314524Y-142327381D01*
X118028809Y-143327381D02*
X118028809Y-142327381D01*
X119171667Y-143327381D02*
X118600238Y-143327381D01*
X118885952Y-143327381D02*
X118885952Y-142327381D01*
X118790714Y-142470238D01*
X118695476Y-142565476D01*
X118600238Y-142613095D01*
X105243334Y-132532381D02*
X104910000Y-132056190D01*
X104671905Y-132532381D02*
X104671905Y-131532381D01*
X105052858Y-131532381D01*
X105148096Y-131580000D01*
X105195715Y-131627619D01*
X105243334Y-131722857D01*
X105243334Y-131865714D01*
X105195715Y-131960952D01*
X105148096Y-132008571D01*
X105052858Y-132056190D01*
X104671905Y-132056190D01*
X106195715Y-132532381D02*
X105624286Y-132532381D01*
X105910000Y-132532381D02*
X105910000Y-131532381D01*
X105814762Y-131675238D01*
X105719524Y-131770476D01*
X105624286Y-131818095D01*
X119828571Y-113657857D02*
X121042857Y-113657857D01*
X121185714Y-113586429D01*
X121257143Y-113515000D01*
X121328571Y-113372143D01*
X121328571Y-113086429D01*
X121257143Y-112943571D01*
X121185714Y-112872143D01*
X121042857Y-112800714D01*
X119828571Y-112800714D01*
X121328571Y-111300714D02*
X121328571Y-112157857D01*
X121328571Y-111729285D02*
X119828571Y-111729285D01*
X120042857Y-111872142D01*
X120185714Y-112015000D01*
X120257143Y-112157857D01*
X123868571Y-115793570D02*
X123154286Y-116293570D01*
X123868571Y-116650713D02*
X122368571Y-116650713D01*
X122368571Y-116079285D01*
X122440000Y-115936427D01*
X122511429Y-115864999D01*
X122654286Y-115793570D01*
X122868571Y-115793570D01*
X123011429Y-115864999D01*
X123082857Y-115936427D01*
X123154286Y-116079285D01*
X123154286Y-116650713D01*
X123868571Y-115150713D02*
X122368571Y-115150713D01*
X123868571Y-114293570D01*
X122368571Y-114293570D01*
X122868571Y-112936427D02*
X123868571Y-112936427D01*
X122297143Y-113293570D02*
X123368571Y-113650713D01*
X123368571Y-112722141D01*
X122368571Y-111864999D02*
X122368571Y-111722142D01*
X122440000Y-111579285D01*
X122511429Y-111507856D01*
X122654286Y-111436427D01*
X122940000Y-111364999D01*
X123297143Y-111364999D01*
X123582857Y-111436427D01*
X123725714Y-111507856D01*
X123797143Y-111579285D01*
X123868571Y-111722142D01*
X123868571Y-111864999D01*
X123797143Y-112007856D01*
X123725714Y-112079285D01*
X123582857Y-112150713D01*
X123297143Y-112222142D01*
X122940000Y-112222142D01*
X122654286Y-112150713D01*
X122511429Y-112079285D01*
X122440000Y-112007856D01*
X122368571Y-111864999D01*
X122511429Y-110793571D02*
X122440000Y-110722142D01*
X122368571Y-110579285D01*
X122368571Y-110222142D01*
X122440000Y-110079285D01*
X122511429Y-110007856D01*
X122654286Y-109936428D01*
X122797143Y-109936428D01*
X123011429Y-110007856D01*
X123868571Y-110864999D01*
X123868571Y-109936428D01*
X122368571Y-109007857D02*
X122368571Y-108865000D01*
X122440000Y-108722143D01*
X122511429Y-108650714D01*
X122654286Y-108579285D01*
X122940000Y-108507857D01*
X123297143Y-108507857D01*
X123582857Y-108579285D01*
X123725714Y-108650714D01*
X123797143Y-108722143D01*
X123868571Y-108865000D01*
X123868571Y-109007857D01*
X123797143Y-109150714D01*
X123725714Y-109222143D01*
X123582857Y-109293571D01*
X123297143Y-109365000D01*
X122940000Y-109365000D01*
X122654286Y-109293571D01*
X122511429Y-109222143D01*
X122440000Y-109150714D01*
X122368571Y-109007857D01*
D14*
X110151333Y-103583619D02*
X110151333Y-104309333D01*
X110102953Y-104454476D01*
X110006191Y-104551238D01*
X109861048Y-104599619D01*
X109764286Y-104599619D01*
X111167333Y-104599619D02*
X110586762Y-104599619D01*
X110877048Y-104599619D02*
X110877048Y-103583619D01*
X110780286Y-103728762D01*
X110683524Y-103825524D01*
X110586762Y-103873905D01*
X121581333Y-121744619D02*
X121581333Y-122470333D01*
X121532953Y-122615476D01*
X121436191Y-122712238D01*
X121291048Y-122760619D01*
X121194286Y-122760619D01*
X122016762Y-121841381D02*
X122065143Y-121793000D01*
X122161905Y-121744619D01*
X122403809Y-121744619D01*
X122500571Y-121793000D01*
X122548952Y-121841381D01*
X122597333Y-121938143D01*
X122597333Y-122034905D01*
X122548952Y-122180048D01*
X121968381Y-122760619D01*
X122597333Y-122760619D01*
X133011333Y-103583619D02*
X133011333Y-104309333D01*
X132962953Y-104454476D01*
X132866191Y-104551238D01*
X132721048Y-104599619D01*
X132624286Y-104599619D01*
X133398381Y-103583619D02*
X134027333Y-103583619D01*
X133688667Y-103970667D01*
X133833809Y-103970667D01*
X133930571Y-104019048D01*
X133978952Y-104067429D01*
X134027333Y-104164190D01*
X134027333Y-104406095D01*
X133978952Y-104502857D01*
X133930571Y-104551238D01*
X133833809Y-104599619D01*
X133543524Y-104599619D01*
X133446762Y-104551238D01*
X133398381Y-104502857D01*
D11*
X102703334Y-132532381D02*
X102370000Y-132056190D01*
X102131905Y-132532381D02*
X102131905Y-131532381D01*
X102512858Y-131532381D01*
X102608096Y-131580000D01*
X102655715Y-131627619D01*
X102703334Y-131722857D01*
X102703334Y-131865714D01*
X102655715Y-131960952D01*
X102608096Y-132008571D01*
X102512858Y-132056190D01*
X102131905Y-132056190D01*
X103084286Y-131627619D02*
X103131905Y-131580000D01*
X103227143Y-131532381D01*
X103465239Y-131532381D01*
X103560477Y-131580000D01*
X103608096Y-131627619D01*
X103655715Y-131722857D01*
X103655715Y-131818095D01*
X103608096Y-131960952D01*
X103036667Y-132532381D01*
X103655715Y-132532381D01*
X130746667Y-127912762D02*
X130889524Y-127960381D01*
X131127620Y-127960381D01*
X131222858Y-127912762D01*
X131270477Y-127865143D01*
X131318096Y-127769905D01*
X131318096Y-127674667D01*
X131270477Y-127579429D01*
X131222858Y-127531810D01*
X131127620Y-127484190D01*
X130937143Y-127436571D01*
X130841905Y-127388952D01*
X130794286Y-127341333D01*
X130746667Y-127246095D01*
X130746667Y-127150857D01*
X130794286Y-127055619D01*
X130841905Y-127008000D01*
X130937143Y-126960381D01*
X131175239Y-126960381D01*
X131318096Y-127008000D01*
X131651429Y-126960381D02*
X131889524Y-127960381D01*
X132080001Y-127246095D01*
X132270477Y-127960381D01*
X132508572Y-126960381D01*
X133413334Y-127960381D02*
X132841905Y-127960381D01*
X133127619Y-127960381D02*
X133127619Y-126960381D01*
X133032381Y-127103238D01*
X132937143Y-127198476D01*
X132841905Y-127246095D01*
M02*
