G04 #@! TF.FileFunction,Soldermask,Top*
%FSLAX46Y46*%
G04 Gerber Fmt 4.6, Leading zero omitted, Abs format (unit mm)*
G04 Created by KiCad (PCBNEW 4.0.4-stable) date *
%MOMM*%
%LPD*%
G01*
G04 APERTURE LIST*
%ADD10C,0.100000*%
%ADD11C,0.150000*%
%ADD12C,1.396998*%
%ADD13C,1.799998*%
%ADD14R,5.600000X5.600000*%
%ADD15R,4.400000X4.400000*%
%ADD16C,1.797000*%
%ADD17R,2.400000X1.200000*%
%ADD18C,2.000000*%
%ADD19R,1.200000X2.400000*%
%ADD20R,2.599640X1.924000*%
%ADD21O,2.599640X1.924000*%
%ADD22R,1.924000X2.599640*%
%ADD23O,1.924000X2.599640*%
%ADD24R,1.797000X1.797000*%
G04 APERTURE END LIST*
D10*
D11*
X100000000Y-100000000D02*
X100000000Y-147500000D01*
X100000000Y-147500000D02*
X136000000Y-147500000D01*
X136000000Y-100000000D02*
X136000000Y-147500000D01*
X100000000Y-100000000D02*
X136000000Y-100000000D01*
D12*
X102870000Y-116840000D03*
X105410000Y-116840000D03*
X107950000Y-116840000D03*
X107950000Y-114300000D03*
X105410000Y-114300000D03*
X102870000Y-114300000D03*
X102870000Y-111760000D03*
X105410000Y-111760000D03*
X107950000Y-111760000D03*
X107950000Y-109220000D03*
X105410000Y-109220000D03*
X102870000Y-109220000D03*
X102870000Y-106680000D03*
X105410000Y-106680000D03*
X107950000Y-106680000D03*
X107950000Y-104140000D03*
X105410000Y-104140000D03*
X102870000Y-104140000D03*
X105410000Y-101600000D03*
D13*
X121539000Y-138049000D03*
X114427000Y-138049000D03*
X133350000Y-144780000D03*
X133350000Y-142240000D03*
X102870000Y-144780000D03*
X102870000Y-142240000D03*
D14*
X104855000Y-138000000D03*
X131155000Y-138000000D03*
D15*
X118005000Y-138000000D03*
D16*
X105410000Y-129540000D03*
X105410000Y-119380000D03*
D17*
X116135000Y-109115000D03*
X116135000Y-110315000D03*
X116135000Y-111515000D03*
X116135000Y-112715000D03*
X116135000Y-113915000D03*
X116135000Y-115115000D03*
X116135000Y-116315000D03*
X116135000Y-117515000D03*
D18*
X116135000Y-120015000D03*
D19*
X118885000Y-120015000D03*
X120085000Y-120015000D03*
X121285000Y-120015000D03*
X122485000Y-120015000D03*
X123685000Y-120015000D03*
X124885000Y-120015000D03*
D18*
X127635000Y-120015000D03*
D17*
X127635000Y-117515000D03*
X127635000Y-116315000D03*
X127635000Y-115115000D03*
X127635000Y-113915000D03*
X127635000Y-112715000D03*
X127635000Y-111515000D03*
X127635000Y-110315000D03*
X127635000Y-109115000D03*
D20*
X110490000Y-106680000D03*
D21*
X110490000Y-109220000D03*
X110490000Y-111760000D03*
X110490000Y-114300000D03*
X110490000Y-116840000D03*
X110490000Y-119380000D03*
X110490000Y-121920000D03*
X110490000Y-124460000D03*
D22*
X115570000Y-124460000D03*
D23*
X118110000Y-124460000D03*
X120650000Y-124460000D03*
X123190000Y-124460000D03*
X125730000Y-124460000D03*
X128270000Y-124460000D03*
D20*
X133350000Y-124460000D03*
D21*
X133350000Y-121920000D03*
X133350000Y-119380000D03*
X133350000Y-116840000D03*
X133350000Y-114300000D03*
X133350000Y-111760000D03*
X133350000Y-109220000D03*
X133350000Y-106680000D03*
D16*
X102870000Y-119380000D03*
X102870000Y-129540000D03*
D24*
X130810000Y-129540000D03*
D16*
X133350000Y-129540000D03*
X128270000Y-129540000D03*
D12*
X102870000Y-101600000D03*
X107950000Y-101600000D03*
M02*
