M48
;DRILL file {KiCad 4.0.4-stable} date 
;FORMAT={-:-/ absolute / metric / decimal}
FMAT,2
METRIC,TZ
T1C0.813
T2C1.001
%
G90
G05
M71
T1
X102.87Y-101.6
X102.87Y-104.14
X102.87Y-106.68
X102.87Y-109.22
X102.87Y-111.76
X102.87Y-114.3
X102.87Y-116.84
X102.87Y-119.38
X102.87Y-129.54
X102.87Y-142.24
X102.87Y-144.78
X105.41Y-101.6
X105.41Y-104.14
X105.41Y-106.68
X105.41Y-109.22
X105.41Y-111.76
X105.41Y-114.3
X105.41Y-116.84
X105.41Y-119.38
X105.41Y-129.54
X107.95Y-101.6
X107.95Y-104.14
X107.95Y-106.68
X107.95Y-109.22
X107.95Y-111.76
X107.95Y-114.3
X107.95Y-116.84
X114.427Y-138.049
X121.539Y-138.049
X128.27Y-129.54
X130.81Y-129.54
X133.35Y-129.54
X133.35Y-142.24
X133.35Y-144.78
T2
X110.49Y-106.68
X110.49Y-109.22
X110.49Y-111.76
X110.49Y-114.3
X110.49Y-116.84
X110.49Y-119.38
X110.49Y-121.92
X110.49Y-124.46
X115.57Y-124.46
X118.11Y-124.46
X120.65Y-124.46
X123.19Y-124.46
X125.73Y-124.46
X128.27Y-124.46
X133.35Y-106.68
X133.35Y-109.22
X133.35Y-111.76
X133.35Y-114.3
X133.35Y-116.84
X133.35Y-119.38
X133.35Y-121.92
X133.35Y-124.46
T0
M30
